<?xml version="1.0" encoding="UTF-8" standalone="no"?>
<svg width="240px" height="96px" viewBox="0 0 240 96" version="1.1" xmlns="http://www.w3.org/2000/svg" xmlns:xlink="http://www.w3.org/1999/xlink">
    <!-- Generator: Sketch 49.2 (51160) - http://www.bohemiancoding.com/sketch -->
    <title>Artboard</title>
    <desc>Created with Sketch.</desc>
    <defs></defs>
    <g id="Artboard" stroke="none" stroke-width="1" fill="none" fill-rule="evenodd">
        <g id="Group-10" transform="translate(0.000000, 12.000000)" fill="#00A6F4">
            <path d="M6.39339851,3.82573904 L6.39339851,12.7524635 L20.1919455,12.7524635 L20.1919455,3.82573904 C20.1919455,2.55048632 20.4825516,1.59406112 21.0637725,0.95643476 C21.6449935,0.318808399 22.4091799,0 23.3563548,0 C24.3178809,0 25.0964182,0.315266083 25.6919903,0.945807707 C26.2875624,1.57634933 26.585344,2.53631684 26.585344,3.82573904 L26.585344,28.3742312 C26.585344,29.6636534 26.2839747,30.6271632 25.681227,31.2647896 C25.0784794,31.902416 24.3035297,32.2212244 23.3563548,32.2212244 C22.3948288,32.2212244 21.6270546,31.8988736 21.0530092,31.2541625 C20.4789639,30.6094514 20.1919455,29.6494839 20.1919455,28.3742312 L20.1919455,17.8959571 L6.39339851,17.8959571 L6.39339851,28.3742312 C6.39339851,29.6636534 6.0920292,30.6271632 5.48928155,31.2647896 C4.8865339,31.902416 4.11158425,32.2212244 3.16440936,32.2212244 C2.20288334,32.2212244 1.43510916,31.8988736 0.861063773,31.2541625 C0.287018387,30.6094514 0,29.6494839 0,28.3742312 L0,3.82573904 C0,2.55048632 0.283430657,1.59406112 0.850300475,0.95643476 C1.41717029,0.318808399 2.18853221,0 3.16440936,0 C4.12593538,0 4.90447276,0.315266083 5.50004485,0.945807707 C6.09561693,1.57634933 6.39339851,2.53631684 6.39339851,3.82573904 Z M49.4465871,21.8492207 L37.9513858,21.8492207 C37.9657369,23.1669819 38.2348166,24.3288614 38.7586331,25.3348941 C39.2824495,26.3409268 39.9784691,27.0989823 40.8467127,27.6090834 C41.7149564,28.1191845 42.6728802,28.3742312 43.7205131,28.3742312 C44.4237186,28.3742312 45.0659223,28.292758 45.6471432,28.129809 C46.2283642,27.96686 46.7916378,27.7118133 47.3369809,27.3646612 C47.882324,27.0175091 48.3846062,26.6455659 48.8438425,26.2488206 C49.3030788,25.8520753 49.898642,25.3136434 50.6305498,24.6335086 C50.9319237,24.3784581 51.3624512,24.2509347 51.9221455,24.2509347 C52.5248931,24.2509347 53.0128244,24.4138812 53.3859539,24.7397791 C53.7590834,25.065677 53.9456453,25.5261781 53.9456453,26.121296 C53.9456453,26.6455666 53.737557,27.2583872 53.3213741,27.9597762 C52.9051912,28.6611651 52.2773385,29.3342051 51.4377971,29.9789162 C50.5982557,30.6236273 49.5434632,31.1585169 48.2733877,31.5836012 C47.0033123,32.0086854 45.5431063,32.2212244 43.8927258,32.2212244 C40.1183774,32.2212244 37.1836144,31.1585297 35.0883487,29.0331085 C32.9930831,26.9076873 31.945466,24.0242424 31.945466,20.3826874 C31.945466,18.668181 32.2037825,17.0776813 32.7204234,15.6111407 C33.2370642,14.1446001 33.9904875,12.887078 34.9807158,11.8385369 C35.970944,10.7899958 37.1907722,9.98589016 38.6402368,9.42619591 C40.0897014,8.86650166 41.6970044,8.58665873 43.4621939,8.58665873 C45.7583755,8.58665873 47.7280391,9.06487133 49.3712441,10.0213109 C51.014449,10.9777504 52.2450403,12.2140185 53.063055,13.7301523 C53.8810697,15.2462861 54.2900709,16.7907357 54.2900709,18.3635474 C54.2900709,19.8230033 53.8667187,20.7688015 53.0200018,21.2009705 C52.1732849,21.6331395 50.9821585,21.8492207 49.4465871,21.8492207 Z M37.9513858,18.5548343 L48.60705,18.5548343 C48.4635386,16.5711079 47.9217914,15.0868777 46.9817921,14.1020992 C46.0417928,13.1173207 44.804026,12.6249388 43.2684546,12.6249388 C41.8046388,12.6249388 40.6027493,13.1244053 39.66275,14.1233533 C38.7227507,15.1223013 38.1523017,16.5994468 37.9513858,18.5548343 Z M59.2411876,28.6930428 L59.2411876,3.52818156 C59.2411876,2.36628463 59.5030918,1.48779038 60.0269082,0.892672443 C60.5507247,0.297554505 61.2575074,0 62.1472778,0 C63.0370481,0 63.7545941,0.29401219 64.2999372,0.88204539 C64.8452803,1.47007859 65.1179478,2.35211516 65.1179478,3.52818156 L65.1179478,28.6930428 C65.1179478,29.8691092 64.8416926,30.7511458 64.2891739,31.339179 C63.7366552,31.9272122 63.022697,32.2212244 62.1472778,32.2212244 C61.2862097,32.2212244 60.5866024,31.9165852 60.0484348,31.3072978 C59.5102673,30.6980104 59.2411876,29.8266008 59.2411876,28.6930428 Z M71.1884474,28.6930428 L71.1884474,3.52818156 C71.1884474,2.36628463 71.4503517,1.48779038 71.9741681,0.892672443 C72.4979845,0.297554505 73.2047673,0 74.0945376,0 C74.984308,0 75.7018539,0.29401219 76.2471971,0.88204539 C76.7925402,1.47007859 77.0652076,2.35211516 77.0652076,3.52818156 L77.0652076,28.6930428 C77.0652076,29.8691092 76.7889524,30.7511458 76.2364338,31.339179 C75.6839151,31.9272122 74.9699568,32.2212244 74.0945376,32.2212244 C73.2334695,32.2212244 72.5338622,31.9165852 71.9956947,31.3072978 C71.4575271,30.6980104 71.1884474,29.8266008 71.1884474,28.6930428 Z M105.135887,20.4251957 C105.135887,22.1538716 104.863219,23.7479136 104.317876,25.2073695 C103.772533,26.6668253 102.983232,27.920805 101.949951,28.9693462 C100.916669,30.0178873 99.6824899,30.8219929 98.2473764,31.3816872 C96.812263,31.9413814 95.1977846,32.2212244 93.4038927,32.2212244 C91.624352,32.2212244 90.0242245,31.9378391 88.6034622,31.3710601 C87.1826999,30.8042811 85.9521085,29.9930909 84.9116513,28.937465 C83.871194,27.8818392 83.0818934,26.6349441 82.5437259,25.1967424 C82.0055583,23.7585407 81.7364786,22.168041 81.7364786,20.4251957 C81.7364786,18.6681808 82.0091461,17.0599695 82.5544892,15.6005136 C83.0998323,14.1410577 83.8819574,12.8941627 84.900888,11.859791 C85.9198185,10.8254194 87.1539976,10.0283984 88.6034622,9.46870412 C90.0529268,8.90900987 91.6530543,8.62916695 93.4038927,8.62916695 C95.1834334,8.62916695 96.7979118,8.91255219 98.2473764,9.47933118 C99.696841,10.0461102 100.938196,10.8537581 101.971477,11.9022992 C103.004759,12.9508404 103.790472,14.1977354 104.328639,15.6430219 C104.866807,17.0883083 105.135887,18.6823503 105.135887,20.4251957 Z M99.2375998,20.4251957 C99.2375998,18.0588934 98.7102035,16.2168893 97.6553951,14.8991282 C96.6005867,13.581367 95.1834334,12.9224963 93.4038927,12.9224963 C92.255802,12.9224963 91.2440621,13.2165085 90.3686429,13.8045417 C89.4932237,14.3925749 88.8187305,15.2604422 88.3451431,16.4081697 C87.8715556,17.5558971 87.6347654,18.8948924 87.6347654,20.4251957 C87.6347654,21.9413294 87.8679679,23.2661555 88.3343798,24.3997134 C88.8007916,25.5332714 89.4681094,26.4011387 90.336353,27.0033414 C91.2045967,27.6055441 92.2270997,27.9066409 93.4038927,27.9066409 C95.1834334,27.9066409 96.6005867,27.2442279 97.6553951,25.919382 C98.7102035,24.5945361 99.2375998,22.763159 99.2375998,20.4251957 Z M143.539331,26.7801733 L138.437528,8.0978143 L133.271145,26.7801733 C132.869314,28.1971207 132.550006,29.2137653 132.313212,29.8301375 C132.076418,30.4465096 131.663829,30.9991108 131.075433,31.4879577 C130.487036,31.9768046 129.704911,32.2212244 128.729034,32.2212244 C127.939722,32.2212244 127.290342,32.0759894 126.780877,31.7855152 C126.271412,31.495041 125.858823,31.0841324 125.543098,30.5527771 C125.227373,30.0214218 124.969057,29.3908896 124.768141,28.6611616 C124.567225,27.9314337 124.387838,27.2548514 124.229976,26.6313945 L118.977487,5.65359214 C118.661762,4.43501731 118.503902,3.50693064 118.503902,2.86930428 C118.503902,2.06164422 118.79092,1.38151964 119.364965,0.828910125 C119.939011,0.276300612 120.649381,0 121.496098,0 C122.65854,0 123.440665,0.368400816 123.842497,1.1052135 C124.244329,1.84202618 124.595926,2.91180548 124.8973,4.31458347 L129.030406,22.508098 L133.658624,5.48355929 C134.003051,4.17996762 134.311596,3.18811927 134.584268,2.50798448 C134.856939,1.8278497 135.301818,1.23982532 135.918916,0.743893702 C136.536015,0.247962088 137.375544,0 138.437528,0 C139.513863,0 140.349804,0.258589034 140.945376,0.775774861 C141.540948,1.29296069 141.953537,1.85618886 142.183155,2.46547627 C142.412774,3.07476368 142.721318,4.0807813 143.108799,5.48355929 L147.78007,22.508098 L151.913176,4.31458347 C152.114092,3.36522867 152.304242,2.6213424 152.483631,2.08290237 C152.66302,1.54446233 152.971565,1.06270741 153.409274,0.637623173 C153.846984,0.212538932 154.482012,0 155.314378,0 C156.146744,0 156.853527,0.272758297 157.434748,0.818283072 C158.015968,1.36380785 158.306575,2.04747475 158.306575,2.86930428 C158.306575,3.45025274 158.148714,4.37833941 157.83299,5.65359214 L152.5805,26.6313945 C152.221722,28.048342 151.923941,29.0862405 151.687147,29.745121 C151.450353,30.4040016 151.048527,30.981399 150.481658,31.4773307 C149.914788,31.9732623 149.114724,32.2212244 148.081442,32.2212244 C147.105565,32.2212244 146.32344,31.9803469 145.735044,31.4985848 C145.146647,31.0168226 144.737646,30.4748483 144.508028,29.8726457 C144.278409,29.270443 143.955514,28.2396292 143.539331,26.7801733 Z M183.040631,20.4251957 C183.040631,22.1538716 182.767964,23.7479136 182.222621,25.2073695 C181.677278,26.6668253 180.887977,27.920805 179.854695,28.9693462 C178.821414,30.0178873 177.587235,30.8219929 176.152121,31.3816872 C174.717008,31.9413814 173.102529,32.2212244 171.308638,32.2212244 C169.529097,32.2212244 167.928969,31.9378391 166.508207,31.3710601 C165.087445,30.8042811 163.856853,29.9930909 162.816396,28.937465 C161.775939,27.8818392 160.986638,26.6349441 160.448471,25.1967424 C159.910303,23.7585407 159.641223,22.168041 159.641223,20.4251957 C159.641223,18.6681808 159.913891,17.0599695 160.459234,15.6005136 C161.004577,14.1410577 161.786702,12.8941627 162.805633,11.859791 C163.824563,10.8254194 165.058742,10.0283984 166.508207,9.46870412 C167.957672,8.90900987 169.557799,8.62916695 171.308638,8.62916695 C173.088178,8.62916695 174.702657,8.91255219 176.152121,9.47933118 C177.601586,10.0461102 178.84294,10.8537581 179.876222,11.9022992 C180.909504,12.9508404 181.695217,14.1977354 182.233384,15.6430219 C182.771552,17.0883083 183.040631,18.6823503 183.040631,20.4251957 Z M177.142345,20.4251957 C177.142345,18.0588934 176.614948,16.2168893 175.56014,14.8991282 C174.505332,13.581367 173.088178,12.9224963 171.308638,12.9224963 C170.160547,12.9224963 169.148807,13.2165085 168.273388,13.8045417 C167.397969,14.3925749 166.723475,15.2604422 166.249888,16.4081697 C165.7763,17.5558971 165.53951,18.8948924 165.53951,20.4251957 C165.53951,21.9413294 165.772713,23.2661555 166.239125,24.3997134 C166.705536,25.5332714 167.372854,26.4011387 168.241098,27.0033414 C169.109342,27.6055441 170.131845,27.9066409 171.308638,27.9066409 C173.088178,27.9066409 174.505332,27.2442279 175.56014,25.919382 C176.614948,24.5945361 177.142345,22.763159 177.142345,20.4251957 Z M193.502556,23.8471067 L193.502556,28.6930428 C193.502556,29.8691092 193.222713,30.7511458 192.663019,31.339179 C192.103325,31.9272122 191.392954,32.2212244 190.531886,32.2212244 C189.685169,32.2212244 188.98915,31.9236699 188.443807,31.3285519 C187.898464,30.733434 187.625796,29.8549397 187.625796,28.6930428 L187.625796,12.5399224 C187.625796,9.93273906 188.580132,8.62916695 190.488833,8.62916695 C191.46471,8.62916695 192.167905,8.93380608 192.598439,9.54309349 C193.028973,10.1523809 193.265764,11.0521291 193.308817,12.2423649 C194.012023,11.0521291 194.733156,10.1523809 195.47224,9.54309349 C196.211323,8.93380608 197.197949,8.62916695 198.432146,8.62916695 C199.666344,8.62916695 200.864646,8.93380608 202.027088,9.54309349 C203.18953,10.1523809 203.770742,10.9600288 203.770742,11.9660616 C203.770742,12.6745353 203.523188,13.2590174 203.028074,13.7195253 C202.53296,14.1800332 201.998388,14.4102837 201.424343,14.4102837 C201.209076,14.4102837 200.688855,14.279218 199.863665,14.0170828 C199.038475,13.7549475 198.310166,13.6238818 197.678716,13.6238818 C196.817648,13.6238818 196.114452,13.8470477 195.569109,14.2933861 C195.023766,14.7397246 194.600414,15.4021376 194.29904,16.280645 C193.997666,17.1591525 193.789578,18.2041355 193.674769,19.4156256 C193.55996,20.6271157 193.502556,22.1042613 193.502556,23.8471067 Z M206.396986,28.6930428 L206.396986,3.52818156 C206.396986,2.36628463 206.658891,1.48779038 207.182707,0.892672443 C207.706523,0.297554505 208.413306,0 209.303077,0 C210.192847,0 210.910393,0.29401219 211.455736,0.88204539 C212.001079,1.47007859 212.273747,2.35211516 212.273747,3.52818156 L212.273747,28.6930428 C212.273747,29.8691092 211.997491,30.7511458 211.444973,31.339179 C210.892454,31.9272122 210.178496,32.2212244 209.303077,32.2212244 C208.442008,32.2212244 207.742401,31.9165852 207.204234,31.3072978 C206.666066,30.6980104 206.396986,29.8266008 206.396986,28.6930428 Z M234.446139,28.9055839 L234.446139,28.331723 C233.656826,29.2243999 232.878289,29.9505746 232.110503,30.5102688 C231.342717,31.0699631 230.510364,31.495041 229.613418,31.7855152 C228.716472,32.0759894 227.737022,32.2212244 226.675038,32.2212244 C225.268627,32.2212244 223.966281,31.9272122 222.767961,31.339179 C221.569642,30.7511458 220.532788,29.911617 219.657368,28.8205674 C218.781949,27.7295179 218.118219,26.4471997 217.666158,24.9735743 C217.214098,23.4999489 216.988071,21.9059069 216.988071,20.1914005 C216.988071,16.564015 217.885003,13.7372472 219.678895,11.7110123 C221.472787,9.6847774 223.833513,8.67167516 226.761144,8.67167516 C228.454578,8.67167516 229.882495,8.95860272 231.044937,9.53246644 C232.207379,10.1063302 233.341101,10.9883667 234.446139,12.1786026 L234.446139,3.61319798 C234.446139,2.42296211 234.686517,1.52321396 235.16728,0.913926548 C235.648043,0.304639136 236.333299,0 237.223069,0 C238.11284,0 238.798096,0.279842928 239.278859,0.839537178 C239.759622,1.39923143 240,2.22459095 240,3.3156405 L240,28.9055839 C240,30.0108029 239.741683,30.8397047 239.225043,31.3923142 C238.708402,31.9449237 238.041084,32.2212244 237.223069,32.2212244 C236.419406,32.2212244 235.755676,31.9342968 235.231859,31.3604331 C234.708043,30.7865693 234.446139,29.9682945 234.446139,28.9055839 Z M222.886358,20.3826874 C222.886358,21.9554991 223.133911,23.2944944 223.629025,24.3997134 C224.124139,25.5049325 224.80222,26.3373766 225.663288,26.8970709 C226.524356,27.4567651 227.464341,27.736608 228.483272,27.736608 C229.516554,27.736608 230.460127,27.4709344 231.314019,26.9395791 C232.167912,26.4082238 232.84958,25.5934912 233.359046,24.4953569 C233.868511,23.3972226 234.12324,22.0263465 234.12324,20.3826874 C234.12324,18.8382147 233.868511,17.5098464 233.359046,16.3975426 C232.84958,15.2852388 232.160736,14.4350831 231.292493,13.8470499 C230.424249,13.2590167 229.473501,12.9650045 228.440219,12.9650045 C227.363884,12.9650045 226.402372,13.2661013 225.555655,13.868304 C224.708938,14.4705067 224.052384,15.3348317 223.585972,16.4613049 C223.11956,17.5877782 222.886358,18.8948926 222.886358,20.3826874 Z" id="Hello-World"></path>
            <path d="M44.3612308,42.9593924 L47.0916923,43.7650633 C46.2443077,45.9651646 45.1772308,48.1652658 43.9846154,50.2724051 L43.9846154,71.2198481 L41.2227692,71.2198481 L41.2227692,54.5486582 C40.344,55.7571646 39.4338462,56.8417215 38.5236923,57.8023291 C38.2412308,57.0896203 37.3938462,55.5402532 36.9230769,54.889519 C39.8732308,52.0076962 42.6664615,47.4835443 44.3612308,42.9593924 Z M50.0732308,56.2219747 L52.9292308,56.7487595 C51.9876923,60.7461266 50.3556923,64.6505316 48.504,67.1914937 C47.9704615,66.7266835 46.6836923,65.9829873 46.0246154,65.6421266 C47.8763077,63.3490633 49.2886154,59.785519 50.0732308,56.2219747 Z M63.192,51.2330127 L58.0763077,51.2330127 L58.0763077,67.9042025 C58.0763077,69.3915949 57.7624615,70.2282532 56.8209231,70.7240506 C55.8793846,71.1888608 54.4670769,71.2818228 52.4898462,71.2818228 C52.3643077,70.4761519 51.8935385,69.1746835 51.4541538,68.4 C52.8664615,68.4309873 54.216,68.4309873 54.624,68.4 C55.032,68.4 55.1889231,68.307038 55.1889231,67.9042025 L55.1889231,51.2330127 L50.952,51.2330127 C50.0104615,53.1852152 49.0061538,54.9205063 47.9390769,56.3149367 C47.4055385,55.7881519 46.2443077,54.8585316 45.5538462,54.4247089 C47.9076923,51.6978228 49.6966154,47.3286076 50.7636923,42.9593924 L53.6510769,43.5791392 C53.2116923,45.283443 52.6781538,46.9567595 52.0504615,48.5681013 L63.9138462,48.5681013 L64.3846154,48.4751392 L66.4246154,48.8779747 C66.0166154,51.2330127 65.4516923,53.9598987 65.0436923,55.6951899 L62.5643077,55.2303797 C62.784,54.1768101 63.0036923,52.7204051 63.192,51.2330127 Z M59.8338462,56.7797468 L62.4387692,55.9430886 C64.1649231,59.1657722 65.64,63.3180759 66.1421538,66.1069367 L63.3489231,67.0985316 C62.9095385,64.3096709 61.4658462,60.0024304 59.8338462,56.7797468 Z M92.4738462,51.6668354 L88.6135385,51.6668354 C88.08,54.1148354 87.5150769,56.4388861 86.9501538,58.4840506 C87.9544615,59.2277468 89.0529231,60.0024304 90.0572308,60.8081013 C91.1870769,58.2361519 92.0344615,55.1993924 92.4738462,51.6668354 Z M93.7292308,48.908962 L95.4867692,49.3427848 C95.0473846,54.8275443 93.9489231,59.2277468 92.3483077,62.6673418 C93.792,63.9378228 95.0473846,65.1773165 95.8633846,66.2308861 L93.9489231,68.6788861 C93.1956923,67.6872911 92.1286154,66.5097722 90.8732308,65.3322532 C89.1784615,67.8732152 87.0443077,69.8254177 84.5335385,71.2508354 C84.1255385,70.5381266 83.3409231,69.4535696 82.7132308,68.9577722 C85.0984615,67.7492658 87.1070769,65.9210127 88.6763077,63.411038 C87.0756923,62.0475949 85.3181538,60.7151392 83.7175385,59.5686076 C84.408,57.4924557 85.1612308,54.6726076 85.7889231,51.6668354 L83.2153846,51.6668354 L83.2153846,49.0019241 L86.3538462,49.0019241 C86.7304615,46.8947848 87.0443077,44.7566582 87.2326154,42.835443 L90.1513846,43.0213671 C89.9003077,44.9115949 89.5550769,46.9257722 89.1470769,49.0019241 L93.1956923,49.0019241 L93.7292308,48.908962 Z M111.932308,55.6642025 L111.932308,58.4220759 L105.310154,58.4220759 L105.310154,67.9971646 C105.310154,69.577519 104.964923,70.3522025 103.835077,70.7860253 C102.736615,71.2198481 101.136,71.2818228 98.688,71.2818228 C98.5310769,70.4761519 98.0916923,69.2986329 97.6836923,68.5239494 C99.4098462,68.5859241 101.167385,68.5859241 101.638154,68.5549367 C102.140308,68.5549367 102.328615,68.4309873 102.328615,67.9661772 L102.328615,58.4220759 L95.3926154,58.4220759 L95.3926154,55.6642025 L102.328615,55.6642025 L102.328615,52.3795443 C103.803692,51.1090633 105.341538,49.2498228 106.502769,47.545519 L96.7107692,47.545519 L96.7107692,44.9115949 L108.511385,44.9115949 L109.170462,44.7566582 L111.179077,46.1510886 C109.672615,48.4131646 107.538462,51.0161013 105.310154,52.9683038 L105.310154,55.6642025 L111.932308,55.6642025 Z M149.625231,53.1232405 L144.384,53.1232405 L144.384,59.971443 L149.625231,59.971443 L149.625231,53.1232405 Z M152.669538,62.6363544 L141.465231,62.6363544 L141.465231,53.1232405 L136.443692,53.1232405 L136.443692,66.6027342 L156.247385,66.6027342 L156.247385,69.3915949 L133.399385,69.3915949 L133.399385,53.1232405 L129.005538,53.1232405 L129.005538,50.3653671 L133.399385,50.3653671 L133.399385,43.6411139 L136.443692,43.6411139 L136.443692,50.3653671 L141.465231,50.3653671 L141.465231,42.9903797 L144.384,42.9903797 L144.384,50.3653671 L149.625231,50.3653671 L149.625231,43.3312405 L152.669538,43.3312405 L152.669538,50.3653671 L157.094769,50.3653671 L157.094769,53.1232405 L152.669538,53.1232405 L152.669538,62.6363544 Z M180.633231,51.2330127 L180.633231,54.1148354 L187.035692,54.1148354 L187.035692,51.2330127 L180.633231,51.2330127 Z M180.633231,46.1820759 L180.633231,49.0019241 L187.035692,49.0019241 L187.035692,46.1820759 L180.633231,46.1820759 Z M196.451077,49.0019241 L196.451077,46.1820759 L189.985846,46.1820759 L189.985846,49.0019241 L196.451077,49.0019241 Z M196.451077,54.1148354 L196.451077,51.2330127 L189.985846,51.2330127 L189.985846,54.1148354 L196.451077,54.1148354 Z M199.464,56.4698734 L193.752,56.4698734 C196.043077,58.6389873 199.495385,60.4052658 203.041846,61.3038987 C202.382769,61.8926582 201.504,63.0082025 201.064615,63.7518987 C198.993231,63.1011646 196.984615,62.1095696 195.164308,60.9320506 L195.164308,71.1888608 L192.151385,71.1888608 L192.151385,60.4362532 L194.473846,60.4362532 C192.904615,59.2897215 191.460923,57.9262785 190.362462,56.4698734 L187.004308,56.4698734 C185.874462,57.8952911 184.430769,59.2587342 182.830154,60.4052658 L185.435077,60.4052658 L185.435077,62.3884557 C185.435077,65.3322532 184.681846,69.1127089 178.499077,71.4677468 C178.153846,70.7240506 177.180923,69.670481 176.521846,69.1127089 C181.857231,67.2844557 182.453538,64.4646076 182.453538,62.2954937 L182.453538,60.6841519 C180.507692,62.0166076 178.373538,63.1011646 176.208,63.8758481 C175.768615,63.1321519 174.921231,62.0785823 174.262154,61.4898228 C177.620308,60.5292152 181.104,58.6699747 183.426462,56.4698734 L177.745846,56.4698734 L177.745846,43.827038 L199.464,43.827038 L199.464,56.4698734 Z" id="你-好-世-界"></path>
        </g>
    </g>
</svg>
